<?xml version="1.0" ?><svg height="353px" version="1.1" viewBox="0 0 235 353" width="235px" xmlns="http://www.w3.org/2000/svg" xmlns:xlink="http://www.w3.org/1999/xlink"><title/><desc/><defs><path d="M113.113136,345 C113.113136,345 226.226271,172.754271 226.226271,111.290323 C226.226271,49.8263746 175.583796,0 113.113136,0 C50.6424759,0 0,49.8263746 0,111.290323 C0,172.754271 113.113136,345 113.113136,345 Z" id="path-1"/><filter filterUnits="objectBoundingBox" height="200%" id="filter-2" width="200%" x="-50%" y="-50%"><feOffset dx="0" dy="4" in="SourceAlpha" result="shadowOffsetOuter1"/><feGaussianBlur in="shadowOffsetOuter1" result="shadowBlurOuter1" stdDeviation="2"/><feColorMatrix in="shadowBlurOuter1" type="matrix" values="0 0 0 0 0   0 0 0 0 0   0 0 0 0 0  0 0 0 0.5 0"/></filter><path d="M112.490509,189.743062 C156.673289,189.743062 192.490509,154.503035 192.490509,111.032258 C192.490509,67.5614816 156.673289,32.3214545 112.490509,32.3214545 C68.3077286,32.3214545 32.4905086,67.5614816 32.4905086,111.032258 C32.4905086,154.503035 68.3077286,189.743062 112.490509,189.743062 Z" id="path-3"/><filter filterUnits="objectBoundingBox" height="200%" id="filter-4" width="200%" x="-50%" y="-50%"><feOffset dx="0" dy="4" in="SourceAlpha" result="shadowOffsetOuter1"/><feGaussianBlur in="shadowOffsetOuter1" result="shadowBlurOuter1" stdDeviation="2"/><feColorMatrix in="shadowBlurOuter1" type="matrix" values="0 0 0 0 0   0 0 0 0 0   0 0 0 0 0  0 0 0 0.5 0"/></filter></defs><g fill="none" fill-rule="evenodd" id="Page-1" stroke="none" stroke-width="1"><g id="pin" transform="translate(4.000000, 0.000000)"><g id="Oval-87"><use fill="black" fill-opacity="1" filter="url(#filter-2)" xlink:href="#path-1"/><use fill="#D98383" fill-rule="evenodd" xlink:href="#path-1"/></g><g id="Oval-88"><use fill="black" fill-opacity="1" filter="url(#filter-4)" xlink:href="#path-3"/><use fill="#FBF0B8" fill-rule="evenodd" xlink:href="#path-3"/></g></g></g></svg>